<?xml version="1.0" encoding="UTF-8" standalone="no"?>
<svg
   xmlns:dc="http://purl.org/dc/elements/1.1/"
   xmlns:cc="http://creativecommons.org/ns#"
   xmlns:rdf="http://www.w3.org/1999/02/22-rdf-syntax-ns#"
   xmlns:svg="http://www.w3.org/2000/svg"
   xmlns="http://www.w3.org/2000/svg"
   xmlns:sodipodi="http://sodipodi.sourceforge.net/DTD/sodipodi-0.dtd"
   xmlns:inkscape="http://www.inkscape.org/namespaces/inkscape"
   width="306.82211"
   height="162.76546"
   viewBox="0 0 81.180013 43.065028"
   version="1.1"
   id="svg21"
   inkscape:version="1.0.2 (e86c870879, 2021-01-15)"
   sodipodi:docname="logo-text.svg">
  <defs
     id="defs15">
    <rect
       x="25.100313"
       y="27.707979"
       width="21.104361"
       height="14.685322"
       id="rect962" />
  </defs>
  <sodipodi:namedview
     id="base"
     pagecolor="#ffffff"
     bordercolor="#666666"
     borderopacity="1.0"
     inkscape:pageopacity="0.0"
     inkscape:pageshadow="2"
     inkscape:zoom="4"
     inkscape:cx="172.87888"
     inkscape:cy="101.71642"
     inkscape:document-units="mm"
     inkscape:current-layer="layer2"
     inkscape:document-rotation="0"
     showgrid="false"
     units="px"
     inkscape:window-width="2560"
     inkscape:window-height="1403"
     inkscape:window-x="0"
     inkscape:window-y="0"
     inkscape:window-maximized="1"
     fit-margin-top="0"
     fit-margin-left="0"
     fit-margin-right="0"
     fit-margin-bottom="0">
    <inkscape:grid
       type="xygrid"
       id="grid23"
       originx="-18.868859"
       originy="-48.000354" />
  </sodipodi:namedview>
  <metadata
     id="metadata18">
    <rdf:RDF>
      <cc:Work
         rdf:about="">
        <dc:format>image/svg+xml</dc:format>
        <dc:type
           rdf:resource="http://purl.org/dc/dcmitype/StillImage" />
        <dc:title />
      </cc:Work>
    </rdf:RDF>
  </metadata>
  <g
     inkscape:label="Layer 1"
     inkscape:groupmode="layer"
     id="layer1"
     transform="translate(-18.86886,-48.000353)">
    <g
       aria-label="Calyx"
       id="text10"
       style="font-style:normal;font-variant:normal;font-weight:normal;font-stretch:normal;font-size:30.24px;line-height:1.25;font-family:sans-serif;-inkscape-font-specification:'sans-serif, Normal';font-variant-ligatures:normal;font-variant-caps:normal;font-variant-numeric:normal;font-variant-east-asian:normal;fill:#000000;fill-opacity:1;stroke:none;stroke-width:0.756002">
      <path
         d="m 38.343419,76.439745 c -0.93744,1.17936 -1.48176,1.78416 -2.23776,2.35872 -1.512,1.17936 -3.50784,1.84464 -5.53392,1.84464 -5.201279,0 -9.434879,-4.26384 -9.434879,-9.5256 0,-5.38272 4.05216,-9.49536 9.404639,-9.49536 1.93536,0 3.74976,0.51408 5.23152,1.512 0.99792,0.63504 1.60272,1.30032 2.44944,2.63088 h 2.50992 c -1.72368,-3.84048 -5.65488,-6.1992 -10.2816,-6.1992 -6.652799,0 -11.581919,4.95936 -11.581919,11.6424 0,6.56208 5.05008,11.4912 11.733119,11.4912 4.536,0 7.98336,-2.1168 10.22112,-6.25968 z"
         style="font-style:normal;font-variant:normal;font-weight:normal;font-stretch:normal;font-size:30.24px;font-family:'URW Gothic';-inkscape-font-specification:'URW Gothic, Normal';font-variant-ligatures:normal;font-variant-caps:normal;font-variant-numeric:normal;font-variant-east-asian:normal;stroke-width:0.756002"
         id="path899" />
      <path
         d="m 60.751201,65.765025 h -2.23776 v 2.93328 c -1.6632,-2.29824 -3.65904,-3.3264 -6.53184,-3.3264 -4.95936,0 -8.70912,3.74976 -8.70912,8.70912 0,4.95936 3.78,8.6184 8.89056,8.6184 2.81232,0 4.56624,-0.9072 6.3504,-3.29616 v 2.90304 h 2.23776 z m -8.70912,1.6632 c 3.65904,0 6.47136,2.84256 6.47136,6.53184 0,3.78 -2.78208,6.68304 -6.3504,6.68304 -3.74976,0 -6.62256,-2.93328 -6.62256,-6.71328 0,-3.59856 2.90304,-6.5016 6.5016,-6.5016 z"
         style="font-style:normal;font-variant:normal;font-weight:normal;font-stretch:normal;font-size:30.24px;font-family:'URW Gothic';-inkscape-font-specification:'URW Gothic, Normal';font-variant-ligatures:normal;font-variant-caps:normal;font-variant-numeric:normal;font-variant-east-asian:normal;stroke-width:0.756002"
         id="path901" />
      <path
         d="M 64.561401,82.306305 H 66.79916 V 56.30304 h -2.237759 z"
         style="font-style:normal;font-variant:normal;font-weight:normal;font-stretch:normal;font-size:30.24px;font-family:'URW Gothic';-inkscape-font-specification:'URW Gothic, Normal';font-variant-ligatures:normal;font-variant-caps:normal;font-variant-numeric:normal;font-variant-east-asian:normal;stroke-width:0.756002"
         id="path903"
         sodipodi:nodetypes="ccccc" />
      <path
         d="m 85.275733,82.306305 h 2.54016 l 4.47552,-6.62256 4.44528,6.62256 h 2.5704 l -5.77584,-8.43696 5.77584,-8.10432 h -2.5704 l -4.44528,6.38064 -4.47552,-6.38064 h -2.54016 l 5.7456,8.10432 z"
         style="font-style:normal;font-variant:normal;font-weight:normal;font-stretch:normal;font-size:30.24px;font-family:'URW Gothic';-inkscape-font-specification:'URW Gothic, Normal';font-variant-ligatures:normal;font-variant-caps:normal;font-variant-numeric:normal;font-variant-east-asian:normal;stroke-width:0.756002"
         id="path907" />
    </g>
  </g>
  <g
     inkscape:groupmode="layer"
     id="layer2"
     inkscape:label="flower"
     transform="translate(-18.86886,-48.000353)">
    <g
       id="g62"
       transform="matrix(2.1725523,0,0,2.1725523,-84.872236,-30.716582)">
      <path
         style="display:inline;fill:#9eb764;fill-opacity:1;stroke:none;stroke-width:0.132292;stroke-linecap:butt;stroke-linejoin:round;stroke-miterlimit:4;stroke-dasharray:none;stroke-opacity:1"
         d="m 74.533655,36.298607 3.704167,3.439583 -3.704167,1.852083 z"
         id="path865-3"
         sodipodi:nodetypes="cccc" />
      <path
         style="display:inline;fill:#b5c68c;fill-opacity:1;stroke:#b5c68c;stroke-width:0.132292;stroke-linecap:butt;stroke-linejoin:round;stroke-miterlimit:4;stroke-dasharray:none;stroke-opacity:1"
         d="m 74.533655,36.298607 -3.704166,3.439583 3.704166,1.852083 z"
         id="path865"
         sodipodi:nodetypes="cccc" />
      <path
         style="display:inline;fill:#92b93b;fill-opacity:1;stroke:none;stroke-width:0.264583px;stroke-linecap:butt;stroke-linejoin:round;stroke-opacity:1;paint-order:normal"
         d="M 74.533655,41.590273 V 46.88194 L 85.116989,36.298607 Z"
         id="path893"
         sodipodi:nodetypes="cccc" />
      <path
         style="display:inline;fill:#7c9d31;fill-opacity:1;stroke:none;stroke-width:0.264583px;stroke-linecap:butt;stroke-linejoin:round;stroke-opacity:1"
         d="M 74.533655,41.590273 63.950322,36.298607 74.533655,46.88194 Z"
         id="path849"
         sodipodi:nodetypes="cccc" />
    </g>
    <rect
       style="fill:#7c9d31;fill-opacity:1;stroke:none;stroke-width:1;stroke-miterlimit:5;stroke-dasharray:none"
       id="rect846"
       width="0.96525574"
       height="20.907024"
       x="76.090775"
       y="70.160263"
       ry="0"
       rx="0" />
    <rect
       style="fill:#92b93b;fill-opacity:1;stroke:none;stroke-width:1;stroke-miterlimit:5;stroke-dasharray:none"
       id="rect846-2"
       width="0.96525574"
       height="20.907024"
       x="77.05603"
       y="70.160263"
       ry="0"
       rx="0" />
  </g>
</svg>
